<svg height="10526" width="720" xmlns="http://www.w3.org/2000/svg">
<rect height="10526" fill="#555" width="720"></rect>
<text fill="#7f7" font-family="Courier New" font-size="12" xml:space="preserve">
<tspan x="10" y="26">103 megabytes installed</tspan>
<tspan x="10" y="42"></tspan>
<tspan x="10" y="58">node_modules</tspan>
<tspan x="10" y="74">└─┬ angular2-cli@1.0.0-alpha.6 </tspan>
<tspan x="10" y="90">  ├─┬ awesome-typescript-loader@2.2.4 </tspan>
<tspan x="10" y="106">  │ ├── enhanced-resolve@2.3.0 </tspan>
<tspan x="10" y="122">  │ ├── object-assign@4.1.1 </tspan>
<tspan x="10" y="138">  │ └── source-map-support@0.4.14 </tspan>
<tspan x="10" y="154">  ├── bluebird@3.5.0 </tspan>
<tspan x="10" y="170">  ├─┬ child-process-promise@2.2.1 </tspan>
<tspan x="10" y="186">  │ ├─┬ cross-spawn@4.0.2 </tspan>
<tspan x="10" y="202">  │ │ ├─┬ lru-cache@4.0.2 </tspan>
<tspan x="10" y="218">  │ │ │ ├── pseudomap@1.0.2 </tspan>
<tspan x="10" y="234">  │ │ │ └── yallist@2.1.2 </tspan>
<tspan x="10" y="250">  │ │ └─┬ which@1.2.14 </tspan>
<tspan x="10" y="266">  │ │   └── isexe@2.0.0 </tspan>
<tspan x="10" y="282">  │ ├── node-version@1.0.0 </tspan>
<tspan x="10" y="298">  │ └── promise-polyfill@6.0.2 </tspan>
<tspan x="10" y="314">  ├── cli-spinners@0.1.2 </tspan>
<tspan x="10" y="330">  ├── colors@1.1.2 </tspan>
<tspan x="10" y="346">  ├─┬ commander@2.9.0 </tspan>
<tspan x="10" y="362">  │ └── graceful-readlink@1.0.1 </tspan>
<tspan x="10" y="378">  ├─┬ copy-webpack-plugin@3.0.1 </tspan>
<tspan x="10" y="394">  │ ├── bluebird@2.11.0 </tspan>
<tspan x="10" y="410">  │ ├─┬ glob@6.0.4 </tspan>
<tspan x="10" y="426">  │ │ ├─┬ inflight@1.0.6 </tspan>
<tspan x="10" y="442">  │ │ │ └── wrappy@1.0.2 </tspan>
<tspan x="10" y="458">  │ │ ├── inherits@2.0.3 </tspan>
<tspan x="10" y="474">  │ │ └── once@1.4.0 </tspan>
<tspan x="10" y="490">  │ ├─┬ minimatch@3.0.3 </tspan>
<tspan x="10" y="506">  │ │ └─┬ brace-expansion@1.1.7 </tspan>
<tspan x="10" y="522">  │ │   ├── balanced-match@0.4.2 </tspan>
<tspan x="10" y="538">  │ │   └── concat-map@0.0.1 </tspan>
<tspan x="10" y="554">  │ └── node-dir@0.1.16 </tspan>
<tspan x="10" y="570">  ├─┬ css-loader@0.25.0 </tspan>
<tspan x="10" y="586">  │ ├─┬ babel-code-frame@6.22.0 </tspan>
<tspan x="10" y="602">  │ │ ├── esutils@2.0.2 </tspan>
<tspan x="10" y="618">  │ │ └── js-tokens@3.0.1 </tspan>
<tspan x="10" y="634">  │ ├─┬ css-selector-tokenizer@0.6.0 </tspan>
<tspan x="10" y="650">  │ │ ├── cssesc@0.1.0 </tspan>
<tspan x="10" y="666">  │ │ ├── fastparse@1.1.1 </tspan>
<tspan x="10" y="682">  │ │ └─┬ regexpu-core@1.0.0 </tspan>
<tspan x="10" y="698">  │ │   ├── regenerate@1.3.2 </tspan>
<tspan x="10" y="714">  │ │   ├── regjsgen@0.2.0 </tspan>
<tspan x="10" y="730">  │ │   └─┬ regjsparser@0.1.5 </tspan>
<tspan x="10" y="746">  │ │     └── jsesc@0.5.0 </tspan>
<tspan x="10" y="762">  │ ├─┬ cssnano@3.10.0 </tspan>
<tspan x="10" y="778">  │ │ ├─┬ autoprefixer@6.7.7 </tspan>
<tspan x="10" y="794">  │ │ │ ├─┬ browserslist@1.7.7 </tspan>
<tspan x="10" y="810">  │ │ │ │ └── electron-to-chromium@1.3.4 </tspan>
<tspan x="10" y="826">  │ │ │ ├── caniuse-db@1.0.30000655 </tspan>
<tspan x="10" y="842">  │ │ │ ├── normalize-range@0.1.2 </tspan>
<tspan x="10" y="858">  │ │ │ └── num2fraction@1.2.2 </tspan>
<tspan x="10" y="874">  │ │ ├── decamelize@1.2.0 </tspan>
<tspan x="10" y="890">  │ │ ├── defined@1.0.0 </tspan>
<tspan x="10" y="906">  │ │ ├─┬ postcss-calc@5.3.1 </tspan>
<tspan x="10" y="922">  │ │ │ ├── postcss-message-helpers@2.0.0 </tspan>
<tspan x="10" y="938">  │ │ │ └─┬ reduce-css-calc@1.3.0 </tspan>
<tspan x="10" y="954">  │ │ │   ├── math-expression-evaluator@1.2.16 </tspan>
<tspan x="10" y="970">  │ │ │   └── reduce-function-call@1.0.2 </tspan>
<tspan x="10" y="986">  │ │ ├─┬ postcss-colormin@2.2.2 </tspan>
<tspan x="10" y="1002">  │ │ │ └─┬ colormin@1.1.2 </tspan>
<tspan x="10" y="1018">  │ │ │   ├─┬ color@0.11.4 </tspan>
<tspan x="10" y="1034">  │ │ │   │ ├─┬ color-convert@1.9.0 </tspan>
<tspan x="10" y="1050">  │ │ │   │ │ └── color-name@1.1.2 </tspan>
<tspan x="10" y="1066">  │ │ │   │ └── color-string@0.3.0 </tspan>
<tspan x="10" y="1082">  │ │ │   └── css-color-names@0.0.4 </tspan>
<tspan x="10" y="1098">  │ │ ├── postcss-convert-values@2.6.1 </tspan>
<tspan x="10" y="1114">  │ │ ├── postcss-discard-comments@2.0.4 </tspan>
<tspan x="10" y="1130">  │ │ ├── postcss-discard-duplicates@2.1.0 </tspan>
<tspan x="10" y="1146">  │ │ ├── postcss-discard-empty@2.1.0 </tspan>
<tspan x="10" y="1162">  │ │ ├── postcss-discard-overridden@0.1.1 </tspan>
<tspan x="10" y="1178">  │ │ ├─┬ postcss-discard-unused@2.2.3 </tspan>
<tspan x="10" y="1194">  │ │ │ └── uniqs@2.0.0 </tspan>
<tspan x="10" y="1210">  │ │ ├─┬ postcss-filter-plugins@2.0.2 </tspan>
<tspan x="10" y="1226">  │ │ │ └─┬ uniqid@4.1.1 </tspan>
<tspan x="10" y="1242">  │ │ │   └── macaddress@0.2.8 </tspan>
<tspan x="10" y="1258">  │ │ ├── postcss-merge-idents@2.1.7 </tspan>
<tspan x="10" y="1274">  │ │ ├── postcss-merge-longhand@2.0.2 </tspan>
<tspan x="10" y="1290">  │ │ ├─┬ postcss-merge-rules@2.1.2 </tspan>
<tspan x="10" y="1306">  │ │ │ ├─┬ caniuse-api@1.6.1 </tspan>
<tspan x="10" y="1322">  │ │ │ │ ├── lodash.memoize@4.1.2 </tspan>
<tspan x="10" y="1338">  │ │ │ │ └── lodash.uniq@4.5.0 </tspan>
<tspan x="10" y="1354">  │ │ │ ├─┬ postcss-selector-parser@2.2.3 </tspan>
<tspan x="10" y="1370">  │ │ │ │ ├── flatten@1.0.2 </tspan>
<tspan x="10" y="1386">  │ │ │ │ ├── indexes-of@1.0.1 </tspan>
<tspan x="10" y="1402">  │ │ │ │ └── uniq@1.0.1 </tspan>
<tspan x="10" y="1418">  │ │ │ └── vendors@1.0.1 </tspan>
<tspan x="10" y="1434">  │ │ ├── postcss-minify-font-values@1.0.5 </tspan>
<tspan x="10" y="1450">  │ │ ├── postcss-minify-gradients@1.0.5 </tspan>
<tspan x="10" y="1466">  │ │ ├─┬ postcss-minify-params@1.2.2 </tspan>
<tspan x="10" y="1482">  │ │ │ └── alphanum-sort@1.0.2 </tspan>
<tspan x="10" y="1498">  │ │ ├── postcss-minify-selectors@2.1.1 </tspan>
<tspan x="10" y="1514">  │ │ ├── postcss-normalize-charset@1.1.1 </tspan>
<tspan x="10" y="1530">  │ │ ├─┬ postcss-normalize-url@3.0.8 </tspan>
<tspan x="10" y="1546">  │ │ │ ├── is-absolute-url@2.1.0 </tspan>
<tspan x="10" y="1562">  │ │ │ └─┬ normalize-url@1.9.1 </tspan>
<tspan x="10" y="1578">  │ │ │   ├── prepend-http@1.0.4 </tspan>
<tspan x="10" y="1594">  │ │ │   └─┬ query-string@4.3.4 </tspan>
<tspan x="10" y="1610">  │ │ │     └── strict-uri-encode@1.1.0 </tspan>
<tspan x="10" y="1626">  │ │ ├── postcss-ordered-values@2.2.3 </tspan>
<tspan x="10" y="1642">  │ │ ├── postcss-reduce-idents@2.4.0 </tspan>
<tspan x="10" y="1658">  │ │ ├── postcss-reduce-initial@1.0.1 </tspan>
<tspan x="10" y="1674">  │ │ ├── postcss-reduce-transforms@1.0.4 </tspan>
<tspan x="10" y="1690">  │ │ ├─┬ postcss-svgo@2.1.6 </tspan>
<tspan x="10" y="1706">  │ │ │ ├─┬ is-svg@2.1.0 </tspan>
<tspan x="10" y="1722">  │ │ │ │ └── html-comment-regex@1.1.1 </tspan>
<tspan x="10" y="1738">  │ │ │ └─┬ svgo@0.7.2 </tspan>
<tspan x="10" y="1754">  │ │ │   ├─┬ coa@1.0.1 </tspan>
<tspan x="10" y="1770">  │ │ │   │ └── q@1.5.0 </tspan>
<tspan x="10" y="1786">  │ │ │   ├─┬ csso@2.3.2 </tspan>
<tspan x="10" y="1802">  │ │ │   │ └── clap@1.1.3 </tspan>
<tspan x="10" y="1818">  │ │ │   ├─┬ js-yaml@3.7.0 </tspan>
<tspan x="10" y="1834">  │ │ │   │ ├─┬ argparse@1.0.9 </tspan>
<tspan x="10" y="1850">  │ │ │   │ │ └── sprintf-js@1.0.3 </tspan>
<tspan x="10" y="1866">  │ │ │   │ └── esprima@2.7.3 </tspan>
<tspan x="10" y="1882">  │ │ │   ├── sax@1.2.2 </tspan>
<tspan x="10" y="1898">  │ │ │   └── whet.extend@0.9.9 </tspan>
<tspan x="10" y="1914">  │ │ ├── postcss-unique-selectors@2.0.2 </tspan>
<tspan x="10" y="1930">  │ │ ├── postcss-value-parser@3.3.0 </tspan>
<tspan x="10" y="1946">  │ │ └── postcss-zindex@2.2.0 </tspan>
<tspan x="10" y="1962">  │ ├─┬ lodash.camelcase@3.0.1 </tspan>
<tspan x="10" y="1978">  │ │ └─┬ lodash._createcompounder@3.0.0 </tspan>
<tspan x="10" y="1994">  │ │   ├─┬ lodash.deburr@3.2.0 </tspan>
<tspan x="10" y="2010">  │ │   │ └── lodash._root@3.0.1 </tspan>
<tspan x="10" y="2026">  │ │   └── lodash.words@3.2.0 </tspan>
<tspan x="10" y="2042">  │ ├─┬ postcss@5.2.17 </tspan>
<tspan x="10" y="2058">  │ │ ├── js-base64@2.1.9 </tspan>
<tspan x="10" y="2074">  │ │ └── supports-color@3.2.3 </tspan>
<tspan x="10" y="2090">  │ ├── postcss-modules-extract-imports@1.0.1 </tspan>
<tspan x="10" y="2106">  │ ├── postcss-modules-local-by-default@1.1.1 </tspan>
<tspan x="10" y="2122">  │ ├── postcss-modules-scope@1.0.2 </tspan>
<tspan x="10" y="2138">  │ ├─┬ postcss-modules-values@1.2.2 </tspan>
<tspan x="10" y="2154">  │ │ └── icss-replace-symbols@1.0.2 </tspan>
<tspan x="10" y="2170">  │ └── source-list-map@0.1.8 </tspan>
<tspan x="10" y="2186">  ├─┬ export-files@2.1.1 </tspan>
<tspan x="10" y="2202">  │ └── lazy-cache@1.0.4 </tspan>
<tspan x="10" y="2218">  ├─┬ fs-extra@0.26.7 </tspan>
<tspan x="10" y="2234">  │ ├── graceful-fs@4.1.11 </tspan>
<tspan x="10" y="2250">  │ ├── jsonfile@2.4.0 </tspan>
<tspan x="10" y="2266">  │ ├── klaw@1.3.1 </tspan>
<tspan x="10" y="2282">  │ ├── path-is-absolute@1.0.1 </tspan>
<tspan x="10" y="2298">  │ └─┬ rimraf@2.6.1 </tspan>
<tspan x="10" y="2314">  │   └── glob@7.1.1 </tspan>
<tspan x="10" y="2330">  ├─┬ loader-utils@0.2.17 </tspan>
<tspan x="10" y="2346">  │ ├── big.js@3.1.3 </tspan>
<tspan x="10" y="2362">  │ ├── emojis-list@2.1.0 </tspan>
<tspan x="10" y="2378">  │ └── json5@0.5.1 </tspan>
<tspan x="10" y="2394">  ├── lodash@4.17.4 </tspan>
<tspan x="10" y="2410">  ├─┬ log-update@1.0.2 </tspan>
<tspan x="10" y="2426">  │ ├── ansi-escapes@1.4.0 </tspan>
<tspan x="10" y="2442">  │ └─┬ cli-cursor@1.0.2 </tspan>
<tspan x="10" y="2458">  │   └─┬ restore-cursor@1.0.1 </tspan>
<tspan x="10" y="2474">  │     ├── exit-hook@1.1.1 </tspan>
<tspan x="10" y="2490">  │     └── onetime@1.1.0 </tspan>
<tspan x="10" y="2506">  ├─┬ node-sass@3.13.1 </tspan>
<tspan x="10" y="2522">  │ ├── async-foreach@0.1.3 </tspan>
<tspan x="10" y="2538">  │ ├─┬ chalk@1.1.3 </tspan>
<tspan x="10" y="2554">  │ │ ├── ansi-styles@2.2.1 </tspan>
<tspan x="10" y="2570">  │ │ ├── escape-string-regexp@1.0.5 </tspan>
<tspan x="10" y="2586">  │ │ ├── has-ansi@2.0.0 </tspan>
<tspan x="10" y="2602">  │ │ └── supports-color@2.0.0 </tspan>
<tspan x="10" y="2618">  │ ├── cross-spawn@3.0.1 </tspan>
<tspan x="10" y="2634">  │ ├─┬ gaze@1.1.2 </tspan>
<tspan x="10" y="2650">  │ │ └─┬ globule@1.1.0 </tspan>
<tspan x="10" y="2666">  │ │   ├── glob@7.1.1 </tspan>
<tspan x="10" y="2682">  │ │   └── lodash@4.16.6 </tspan>
<tspan x="10" y="2698">  │ ├── get-stdin@4.0.1 </tspan>
<tspan x="10" y="2714">  │ ├─┬ glob@7.1.1 </tspan>
<tspan x="10" y="2730">  │ │ └── fs.realpath@1.0.0 </tspan>
<tspan x="10" y="2746">  │ ├── in-publish@2.0.0 </tspan>
<tspan x="10" y="2762">  │ ├── lodash.assign@4.2.0 </tspan>
<tspan x="10" y="2778">  │ ├── lodash.clonedeep@4.5.0 </tspan>
<tspan x="10" y="2794">  │ ├─┬ meow@3.7.0 </tspan>
<tspan x="10" y="2810">  │ │ ├─┬ camelcase-keys@2.1.0 </tspan>
<tspan x="10" y="2826">  │ │ │ └── camelcase@2.1.1 </tspan>
<tspan x="10" y="2842">  │ │ ├─┬ loud-rejection@1.6.0 </tspan>
<tspan x="10" y="2858">  │ │ │ ├─┬ currently-unhandled@0.4.1 </tspan>
<tspan x="10" y="2874">  │ │ │ │ └── array-find-index@1.0.2 </tspan>
<tspan x="10" y="2890">  │ │ │ └── signal-exit@3.0.2 </tspan>
<tspan x="10" y="2906">  │ │ ├── map-obj@1.0.1 </tspan>
<tspan x="10" y="2922">  │ │ ├── minimist@1.2.0 </tspan>
<tspan x="10" y="2938">  │ │ ├─┬ normalize-package-data@2.3.6 </tspan>
<tspan x="10" y="2954">  │ │ │ ├── hosted-git-info@2.4.2 </tspan>
<tspan x="10" y="2970">  │ │ │ ├─┬ is-builtin-module@1.0.0 </tspan>
<tspan x="10" y="2986">  │ │ │ │ └── builtin-modules@1.1.1 </tspan>
<tspan x="10" y="3002">  │ │ │ └─┬ validate-npm-package-license@3.0.1 </tspan>
<tspan x="10" y="3018">  │ │ │   ├─┬ spdx-correct@1.0.2 </tspan>
<tspan x="10" y="3034">  │ │ │   │ └── spdx-license-ids@1.2.2 </tspan>
<tspan x="10" y="3050">  │ │ │   └── spdx-expression-parse@1.0.4 </tspan>
<tspan x="10" y="3066">  │ │ ├─┬ read-pkg-up@1.0.1 </tspan>
<tspan x="10" y="3082">  │ │ │ ├─┬ find-up@1.1.2 </tspan>
<tspan x="10" y="3098">  │ │ │ │ └── path-exists@2.1.0 </tspan>
<tspan x="10" y="3114">  │ │ │ └─┬ read-pkg@1.1.0 </tspan>
<tspan x="10" y="3130">  │ │ │   ├─┬ load-json-file@1.1.0 </tspan>
<tspan x="10" y="3146">  │ │ │   │ └── pify@2.3.0 </tspan>
<tspan x="10" y="3162">  │ │ │   └── path-type@1.1.0 </tspan>
<tspan x="10" y="3178">  │ │ ├─┬ redent@1.0.0 </tspan>
<tspan x="10" y="3194">  │ │ │ ├── indent-string@2.1.0 </tspan>
<tspan x="10" y="3210">  │ │ │ └── strip-indent@1.0.1 </tspan>
<tspan x="10" y="3226">  │ │ └── trim-newlines@1.0.0 </tspan>
<tspan x="10" y="3242">  │ ├─┬ mkdirp@0.5.1 </tspan>
<tspan x="10" y="3258">  │ │ └── minimist@0.0.8 </tspan>
<tspan x="10" y="3274">  │ ├── nan@2.6.2 </tspan>
<tspan x="10" y="3290">  │ ├─┬ node-gyp@3.6.0 </tspan>
<tspan x="10" y="3306">  │ │ ├── fstream@1.0.11 </tspan>
<tspan x="10" y="3322">  │ │ ├── glob@7.1.1 </tspan>
<tspan x="10" y="3338">  │ │ ├─┬ nopt@3.0.6 </tspan>
<tspan x="10" y="3354">  │ │ │ └── abbrev@1.1.0 </tspan>
<tspan x="10" y="3370">  │ │ ├─┬ osenv@0.1.4 </tspan>
<tspan x="10" y="3386">  │ │ │ └── os-homedir@1.0.2 </tspan>
<tspan x="10" y="3402">  │ │ ├── semver@5.3.0 </tspan>
<tspan x="10" y="3418">  │ │ └─┬ tar@2.2.1 </tspan>
<tspan x="10" y="3434">  │ │   └── block-stream@0.0.9 </tspan>
<tspan x="10" y="3450">  │ ├─┬ npmlog@4.0.2 </tspan>
<tspan x="10" y="3466">  │ │ ├─┬ are-we-there-yet@1.1.2 </tspan>
<tspan x="10" y="3482">  │ │ │ └── delegates@1.0.0 </tspan>
<tspan x="10" y="3498">  │ │ ├── console-control-strings@1.1.0 </tspan>
<tspan x="10" y="3514">  │ │ ├─┬ gauge@2.7.3 </tspan>
<tspan x="10" y="3530">  │ │ │ ├── aproba@1.1.1 </tspan>
<tspan x="10" y="3546">  │ │ │ ├── has-unicode@2.0.1 </tspan>
<tspan x="10" y="3562">  │ │ │ └── wide-align@1.1.0 </tspan>
<tspan x="10" y="3578">  │ │ └── set-blocking@2.0.0 </tspan>
<tspan x="10" y="3594">  │ ├─┬ request@2.81.0 </tspan>
<tspan x="10" y="3610">  │ │ ├── aws-sign2@0.6.0 </tspan>
<tspan x="10" y="3626">  │ │ ├── aws4@1.6.0 </tspan>
<tspan x="10" y="3642">  │ │ ├── caseless@0.12.0 </tspan>
<tspan x="10" y="3658">  │ │ ├─┬ combined-stream@1.0.5 </tspan>
<tspan x="10" y="3674">  │ │ │ └── delayed-stream@1.0.0 </tspan>
<tspan x="10" y="3690">  │ │ ├── extend@3.0.0 </tspan>
<tspan x="10" y="3706">  │ │ ├── forever-agent@0.6.1 </tspan>
<tspan x="10" y="3722">  │ │ ├─┬ form-data@2.1.4 </tspan>
<tspan x="10" y="3738">  │ │ │ └── asynckit@0.4.0 </tspan>
<tspan x="10" y="3754">  │ │ ├─┬ har-validator@4.2.1 </tspan>
<tspan x="10" y="3770">  │ │ │ ├─┬ ajv@4.11.7 </tspan>
<tspan x="10" y="3786">  │ │ │ │ ├── co@4.6.0 </tspan>
<tspan x="10" y="3802">  │ │ │ │ └─┬ json-stable-stringify@1.0.1 </tspan>
<tspan x="10" y="3818">  │ │ │ │   └── jsonify@0.0.0 </tspan>
<tspan x="10" y="3834">  │ │ │ └── har-schema@1.0.5 </tspan>
<tspan x="10" y="3850">  │ │ ├─┬ hawk@3.1.3 </tspan>
<tspan x="10" y="3866">  │ │ │ ├── boom@2.10.1 </tspan>
<tspan x="10" y="3882">  │ │ │ ├── cryptiles@2.0.5 </tspan>
<tspan x="10" y="3898">  │ │ │ ├── hoek@2.16.3 </tspan>
<tspan x="10" y="3914">  │ │ │ └── sntp@1.0.9 </tspan>
<tspan x="10" y="3930">  │ │ ├─┬ http-signature@1.1.1 </tspan>
<tspan x="10" y="3946">  │ │ │ ├── assert-plus@0.2.0 </tspan>
<tspan x="10" y="3962">  │ │ │ ├─┬ jsprim@1.4.0 </tspan>
<tspan x="10" y="3978">  │ │ │ │ ├── assert-plus@1.0.0 </tspan>
<tspan x="10" y="3994">  │ │ │ │ ├── extsprintf@1.0.2 </tspan>
<tspan x="10" y="4010">  │ │ │ │ ├── json-schema@0.2.3 </tspan>
<tspan x="10" y="4026">  │ │ │ │ └── verror@1.3.6 </tspan>
<tspan x="10" y="4042">  │ │ │ └─┬ sshpk@1.13.0 </tspan>
<tspan x="10" y="4058">  │ │ │   ├── asn1@0.2.3 </tspan>
<tspan x="10" y="4074">  │ │ │   ├── assert-plus@1.0.0 </tspan>
<tspan x="10" y="4090">  │ │ │   ├── bcrypt-pbkdf@1.0.1 </tspan>
<tspan x="10" y="4106">  │ │ │   ├─┬ dashdash@1.14.1 </tspan>
<tspan x="10" y="4122">  │ │ │   │ └── assert-plus@1.0.0 </tspan>
<tspan x="10" y="4138">  │ │ │   ├── ecc-jsbn@0.1.1 </tspan>
<tspan x="10" y="4154">  │ │ │   ├─┬ getpass@0.1.6 </tspan>
<tspan x="10" y="4170">  │ │ │   │ └── assert-plus@1.0.0 </tspan>
<tspan x="10" y="4186">  │ │ │   ├── jodid25519@1.0.2 </tspan>
<tspan x="10" y="4202">  │ │ │   ├── jsbn@0.1.1 </tspan>
<tspan x="10" y="4218">  │ │ │   └── tweetnacl@0.14.5 </tspan>
<tspan x="10" y="4234">  │ │ ├── is-typedarray@1.0.0 </tspan>
<tspan x="10" y="4250">  │ │ ├── isstream@0.1.2 </tspan>
<tspan x="10" y="4266">  │ │ ├── json-stringify-safe@5.0.1 </tspan>
<tspan x="10" y="4282">  │ │ ├─┬ mime-types@2.1.15 </tspan>
<tspan x="10" y="4298">  │ │ │ └── mime-db@1.27.0 </tspan>
<tspan x="10" y="4314">  │ │ ├── oauth-sign@0.8.2 </tspan>
<tspan x="10" y="4330">  │ │ ├── performance-now@0.2.0 </tspan>
<tspan x="10" y="4346">  │ │ ├── qs@6.4.0 </tspan>
<tspan x="10" y="4362">  │ │ ├── safe-buffer@5.0.1 </tspan>
<tspan x="10" y="4378">  │ │ ├── stringstream@0.0.5 </tspan>
<tspan x="10" y="4394">  │ │ ├── tough-cookie@2.3.2 </tspan>
<tspan x="10" y="4410">  │ │ ├── tunnel-agent@0.6.0 </tspan>
<tspan x="10" y="4426">  │ │ └── uuid@3.0.1 </tspan>
<tspan x="10" y="4442">  │ └─┬ sass-graph@2.1.2 </tspan>
<tspan x="10" y="4458">  │   └── glob@7.1.1 </tspan>
<tspan x="10" y="4474">  ├── postcss-loader@0.13.0 </tspan>
<tspan x="10" y="4490">  ├─┬ pug@2.0.0-beta9 </tspan>
<tspan x="10" y="4506">  │ ├─┬ pug-code-gen@1.1.1 </tspan>
<tspan x="10" y="4522">  │ │ ├─┬ constantinople@3.1.0 </tspan>
<tspan x="10" y="4538">  │ │ │ └── is-expression@2.1.0 </tspan>
<tspan x="10" y="4554">  │ │ ├── doctypes@1.1.0 </tspan>
<tspan x="10" y="4570">  │ │ ├── js-stringify@1.0.2 </tspan>
<tspan x="10" y="4586">  │ │ ├── pug-attrs@2.0.2 </tspan>
<tspan x="10" y="4602">  │ │ ├── pug-error@1.3.2 </tspan>
<tspan x="10" y="4618">  │ │ ├── void-elements@2.0.1 </tspan>
<tspan x="10" y="4634">  │ │ └─┬ with@5.1.1 </tspan>
<tspan x="10" y="4650">  │ │   └─┬ acorn-globals@3.1.0 </tspan>
<tspan x="10" y="4666">  │ │     └── acorn@4.0.11 </tspan>
<tspan x="10" y="4682">  │ ├─┬ pug-filters@2.1.2 </tspan>
<tspan x="10" y="4698">  │ │ ├─┬ clean-css@3.4.25 </tspan>
<tspan x="10" y="4714">  │ │ │ ├── commander@2.8.1 </tspan>
<tspan x="10" y="4730">  │ │ │ └─┬ source-map@0.4.4 </tspan>
<tspan x="10" y="4746">  │ │ │   └── amdefine@1.0.1 </tspan>
<tspan x="10" y="4762">  │ │ ├─┬ jstransformer@1.0.0 </tspan>
<tspan x="10" y="4778">  │ │ │ ├── is-promise@2.1.0 </tspan>
<tspan x="10" y="4794">  │ │ │ └─┬ promise@7.1.1 </tspan>
<tspan x="10" y="4810">  │ │ │   └── asap@2.0.5 </tspan>
<tspan x="10" y="4826">  │ │ ├── pug-walk@1.1.2 </tspan>
<tspan x="10" y="4842">  │ │ ├─┬ resolve@1.3.2 </tspan>
<tspan x="10" y="4858">  │ │ │ └── path-parse@1.0.5 </tspan>
<tspan x="10" y="4874">  │ │ └─┬ uglify-js@2.8.22 </tspan>
<tspan x="10" y="4890">  │ │   └─┬ yargs@3.10.0 </tspan>
<tspan x="10" y="4906">  │ │     ├── camelcase@1.2.1 </tspan>
<tspan x="10" y="4922">  │ │     ├── cliui@2.1.0 </tspan>
<tspan x="10" y="4938">  │ │     └── window-size@0.1.0 </tspan>
<tspan x="10" y="4954">  │ ├─┬ pug-lexer@2.3.2 </tspan>
<tspan x="10" y="4970">  │ │ ├─┬ character-parser@2.2.0 </tspan>
<tspan x="10" y="4986">  │ │ │ └── is-regex@1.0.4 </tspan>
<tspan x="10" y="5002">  │ │ └─┬ is-expression@3.0.0 </tspan>
<tspan x="10" y="5018">  │ │   └── acorn@4.0.11 </tspan>
<tspan x="10" y="5034">  │ ├── pug-linker@2.0.3 </tspan>
<tspan x="10" y="5050">  │ ├── pug-load@2.0.6 </tspan>
<tspan x="10" y="5066">  │ ├─┬ pug-parser@2.0.2 </tspan>
<tspan x="10" y="5082">  │ │ └── token-stream@0.0.1 </tspan>
<tspan x="10" y="5098">  │ ├── pug-runtime@2.0.3 </tspan>
<tspan x="10" y="5114">  │ └── pug-strip-comments@1.0.2 </tspan>
<tspan x="10" y="5130">  ├── raw-loader@0.5.1 </tspan>
<tspan x="10" y="5146">  ├─┬ sass-loader@4.1.1 </tspan>
<tspan x="10" y="5162">  │ └── async@2.3.0 </tspan>
<tspan x="10" y="5178">  ├─┬ style-loader@0.13.2 </tspan>
<tspan x="10" y="5194">  │ └── loader-utils@1.1.0 </tspan>
<tspan x="10" y="5210">  ├── typescript@2.2.2 </tspan>
<tspan x="10" y="5226">  ├─┬ typings-core@1.6.1 </tspan>
<tspan x="10" y="5242">  │ ├── any-promise@1.3.0 </tspan>
<tspan x="10" y="5258">  │ ├── array-uniq@1.0.3 </tspan>
<tspan x="10" y="5274">  │ ├─┬ configstore@2.1.0 </tspan>
<tspan x="10" y="5290">  │ │ ├─┬ dot-prop@3.0.0 </tspan>
<tspan x="10" y="5306">  │ │ │ └── is-obj@1.0.1 </tspan>
<tspan x="10" y="5322">  │ │ ├── os-tmpdir@1.0.2 </tspan>
<tspan x="10" y="5338">  │ │ ├── uuid@2.0.3 </tspan>
<tspan x="10" y="5354">  │ │ ├─┬ write-file-atomic@1.3.1 </tspan>
<tspan x="10" y="5370">  │ │ │ ├── imurmurhash@0.1.4 </tspan>
<tspan x="10" y="5386">  │ │ │ └── slide@1.1.6 </tspan>
<tspan x="10" y="5402">  │ │ └── xdg-basedir@2.0.0 </tspan>
<tspan x="10" y="5418">  │ ├─┬ debug@2.6.3 </tspan>
<tspan x="10" y="5434">  │ │ └── ms@0.7.2 </tspan>
<tspan x="10" y="5450">  │ ├─┬ detect-indent@4.0.0 </tspan>
<tspan x="10" y="5466">  │ │ └─┬ repeating@2.0.1 </tspan>
<tspan x="10" y="5482">  │ │   └─┬ is-finite@1.0.2 </tspan>
<tspan x="10" y="5498">  │ │     └── number-is-nan@1.0.1 </tspan>
<tspan x="10" y="5514">  │ ├─┬ has@1.0.1 </tspan>
<tspan x="10" y="5530">  │ │ └── function-bind@1.1.0 </tspan>
<tspan x="10" y="5546">  │ ├─┬ invariant@2.2.2 </tspan>
<tspan x="10" y="5562">  │ │ └── loose-envify@1.3.1 </tspan>
<tspan x="10" y="5578">  │ ├─┬ is-absolute@0.2.6 </tspan>
<tspan x="10" y="5594">  │ │ ├─┬ is-relative@0.2.1 </tspan>
<tspan x="10" y="5610">  │ │ │ └─┬ is-unc-path@0.1.2 </tspan>
<tspan x="10" y="5626">  │ │ │   └── unc-path-regex@0.1.2 </tspan>
<tspan x="10" y="5642">  │ │ └── is-windows@0.2.0 </tspan>
<tspan x="10" y="5658">  │ ├── listify@1.0.0 </tspan>
<tspan x="10" y="5674">  │ ├── lockfile@1.0.3 </tspan>
<tspan x="10" y="5690">  │ ├─┬ make-error-cause@1.2.2 </tspan>
<tspan x="10" y="5706">  │ │ └── make-error@1.2.3 </tspan>
<tspan x="10" y="5722">  │ ├─┬ object.pick@1.2.0 </tspan>
<tspan x="10" y="5738">  │ │ └─┬ isobject@2.1.0 </tspan>
<tspan x="10" y="5754">  │ │   └── isarray@1.0.0 </tspan>
<tspan x="10" y="5770">  │ ├─┬ parse-json@2.2.0 </tspan>
<tspan x="10" y="5786">  │ │ └─┬ error-ex@1.3.1 </tspan>
<tspan x="10" y="5802">  │ │   └── is-arrayish@0.2.1 </tspan>
<tspan x="10" y="5818">  │ ├─┬ popsicle@8.2.0 </tspan>
<tspan x="10" y="5834">  │ │ ├── arrify@1.0.1 </tspan>
<tspan x="10" y="5850">  │ │ ├─┬ concat-stream@1.6.0 </tspan>
<tspan x="10" y="5866">  │ │ │ └── typedarray@0.0.6 </tspan>
<tspan x="10" y="5882">  │ │ └── throwback@1.1.1 </tspan>
<tspan x="10" y="5898">  │ ├─┬ popsicle-proxy-agent@3.0.0 </tspan>
<tspan x="10" y="5914">  │ │ ├─┬ http-proxy-agent@1.0.0 </tspan>
<tspan x="10" y="5930">  │ │ │ └─┬ agent-base@2.0.1 </tspan>
<tspan x="10" y="5946">  │ │ │   └── semver@5.0.3 </tspan>
<tspan x="10" y="5962">  │ │ └── https-proxy-agent@1.0.0 </tspan>
<tspan x="10" y="5978">  │ ├── popsicle-retry@3.2.1 </tspan>
<tspan x="10" y="5994">  │ ├── popsicle-rewrite@1.0.0 </tspan>
<tspan x="10" y="6010">  │ ├── popsicle-status@2.0.0 </tspan>
<tspan x="10" y="6026">  │ ├── promise-finally@2.2.1 </tspan>
<tspan x="10" y="6042">  │ ├─┬ rc@1.2.1 </tspan>
<tspan x="10" y="6058">  │ │ ├── deep-extend@0.4.1 </tspan>
<tspan x="10" y="6074">  │ │ ├── ini@1.3.4 </tspan>
<tspan x="10" y="6090">  │ │ ├── minimist@1.2.0 </tspan>
<tspan x="10" y="6106">  │ │ └── strip-json-comments@2.0.1 </tspan>
<tspan x="10" y="6122">  │ ├─┬ sort-keys@1.1.2 </tspan>
<tspan x="10" y="6138">  │ │ └── is-plain-obj@1.1.0 </tspan>
<tspan x="10" y="6154">  │ ├── string-template@1.0.0 </tspan>
<tspan x="10" y="6170">  │ ├─┬ strip-bom@2.0.0 </tspan>
<tspan x="10" y="6186">  │ │ └── is-utf8@0.2.1 </tspan>
<tspan x="10" y="6202">  │ ├── thenify@3.2.1 </tspan>
<tspan x="10" y="6218">  │ ├── throat@3.0.0 </tspan>
<tspan x="10" y="6234">  │ ├─┬ touch@1.0.0 </tspan>
<tspan x="10" y="6250">  │ │ └── nopt@1.0.10 </tspan>
<tspan x="10" y="6266">  │ ├── xtend@4.0.1 </tspan>
<tspan x="10" y="6282">  │ └── zip-object@0.1.0 </tspan>
<tspan x="10" y="6298">  ├─┬ webpack@2.1.0-beta.22 </tspan>
<tspan x="10" y="6314">  │ ├── acorn@3.3.0 </tspan>
<tspan x="10" y="6330">  │ ├── async@1.5.2 </tspan>
<tspan x="10" y="6346">  │ ├── clone@1.0.2 </tspan>
<tspan x="10" y="6362">  │ ├── interpret@1.0.3 </tspan>
<tspan x="10" y="6378">  │ ├── loader-runner@2.3.0 </tspan>
<tspan x="10" y="6394">  │ ├─┬ memory-fs@0.3.0 </tspan>
<tspan x="10" y="6410">  │ │ ├─┬ errno@0.1.4 </tspan>
<tspan x="10" y="6426">  │ │ │ └── prr@0.0.0 </tspan>
<tspan x="10" y="6442">  │ │ └─┬ readable-stream@2.2.9 </tspan>
<tspan x="10" y="6458">  │ │   ├── buffer-shims@1.0.0 </tspan>
<tspan x="10" y="6474">  │ │   ├── core-util-is@1.0.2 </tspan>
<tspan x="10" y="6490">  │ │   ├── process-nextick-args@1.0.7 </tspan>
<tspan x="10" y="6506">  │ │   ├── string_decoder@1.0.0 </tspan>
<tspan x="10" y="6522">  │ │   └── util-deprecate@1.0.2 </tspan>
<tspan x="10" y="6538">  │ ├─┬ node-libs-browser@1.1.1 </tspan>
<tspan x="10" y="6554">  │ │ ├── assert@1.4.1 </tspan>
<tspan x="10" y="6570">  │ │ ├─┬ browserify-zlib@0.1.4 </tspan>
<tspan x="10" y="6586">  │ │ │ └── pako@0.2.9 </tspan>
<tspan x="10" y="6602">  │ │ ├─┬ buffer@4.9.1 </tspan>
<tspan x="10" y="6618">  │ │ │ ├── base64-js@1.2.0 </tspan>
<tspan x="10" y="6634">  │ │ │ └── ieee754@1.1.8 </tspan>
<tspan x="10" y="6650">  │ │ ├─┬ console-browserify@1.1.0 </tspan>
<tspan x="10" y="6666">  │ │ │ └── date-now@0.1.4 </tspan>
<tspan x="10" y="6682">  │ │ ├── constants-browserify@1.0.0 </tspan>
<tspan x="10" y="6698">  │ │ ├─┬ crypto-browserify@3.11.0 </tspan>
<tspan x="10" y="6714">  │ │ │ ├─┬ browserify-cipher@1.0.0 </tspan>
<tspan x="10" y="6730">  │ │ │ │ ├─┬ browserify-aes@1.0.6 </tspan>
<tspan x="10" y="6746">  │ │ │ │ │ └── buffer-xor@1.0.3 </tspan>
<tspan x="10" y="6762">  │ │ │ │ ├─┬ browserify-des@1.0.0 </tspan>
<tspan x="10" y="6778">  │ │ │ │ │ └── des.js@1.0.0 </tspan>
<tspan x="10" y="6794">  │ │ │ │ └── evp_bytestokey@1.0.0 </tspan>
<tspan x="10" y="6810">  │ │ │ ├─┬ browserify-sign@4.0.4 </tspan>
<tspan x="10" y="6826">  │ │ │ │ ├── bn.js@4.11.6 </tspan>
<tspan x="10" y="6842">  │ │ │ │ ├── browserify-rsa@4.0.1 </tspan>
<tspan x="10" y="6858">  │ │ │ │ ├─┬ elliptic@6.4.0 </tspan>
<tspan x="10" y="6874">  │ │ │ │ │ ├── brorand@1.1.0 </tspan>
<tspan x="10" y="6890">  │ │ │ │ │ ├── hash.js@1.0.3 </tspan>
<tspan x="10" y="6906">  │ │ │ │ │ ├── hmac-drbg@1.0.1 </tspan>
<tspan x="10" y="6922">  │ │ │ │ │ └── minimalistic-crypto-utils@1.0.1 </tspan>
<tspan x="10" y="6938">  │ │ │ │ └─┬ parse-asn1@5.1.0 </tspan>
<tspan x="10" y="6954">  │ │ │ │   └── asn1.js@4.9.1 </tspan>
<tspan x="10" y="6970">  │ │ │ ├── create-ecdh@4.0.0 </tspan>
<tspan x="10" y="6986">  │ │ │ ├─┬ create-hash@1.1.2 </tspan>
<tspan x="10" y="7002">  │ │ │ │ ├── cipher-base@1.0.3 </tspan>
<tspan x="10" y="7018">  │ │ │ │ ├── ripemd160@1.0.1 </tspan>
<tspan x="10" y="7034">  │ │ │ │ └── sha.js@2.4.8 </tspan>
<tspan x="10" y="7050">  │ │ │ ├── create-hmac@1.1.4 </tspan>
<tspan x="10" y="7066">  │ │ │ ├─┬ diffie-hellman@5.0.2 </tspan>
<tspan x="10" y="7082">  │ │ │ │ └── miller-rabin@4.0.0 </tspan>
<tspan x="10" y="7098">  │ │ │ ├── pbkdf2@3.0.9 </tspan>
<tspan x="10" y="7114">  │ │ │ ├── public-encrypt@4.0.0 </tspan>
<tspan x="10" y="7130">  │ │ │ └── randombytes@2.0.3 </tspan>
<tspan x="10" y="7146">  │ │ ├── domain-browser@1.1.7 </tspan>
<tspan x="10" y="7162">  │ │ ├── events@1.1.1 </tspan>
<tspan x="10" y="7178">  │ │ ├── https-browserify@0.0.1 </tspan>
<tspan x="10" y="7194">  │ │ ├── os-browserify@0.2.1 </tspan>
<tspan x="10" y="7210">  │ │ ├── path-browserify@0.0.0 </tspan>
<tspan x="10" y="7226">  │ │ ├── process@0.11.9 </tspan>
<tspan x="10" y="7242">  │ │ ├── punycode@1.4.1 </tspan>
<tspan x="10" y="7258">  │ │ ├── querystring-es3@0.2.1 </tspan>
<tspan x="10" y="7274">  │ │ ├── stream-browserify@2.0.1 </tspan>
<tspan x="10" y="7290">  │ │ ├─┬ stream-http@2.7.0 </tspan>
<tspan x="10" y="7306">  │ │ │ ├── builtin-status-codes@3.0.0 </tspan>
<tspan x="10" y="7322">  │ │ │ └── to-arraybuffer@1.0.1 </tspan>
<tspan x="10" y="7338">  │ │ ├── string_decoder@0.10.31 </tspan>
<tspan x="10" y="7354">  │ │ ├── timers-browserify@1.4.2 </tspan>
<tspan x="10" y="7370">  │ │ ├── tty-browserify@0.0.0 </tspan>
<tspan x="10" y="7386">  │ │ ├─┬ url@0.11.0 </tspan>
<tspan x="10" y="7402">  │ │ │ ├── punycode@1.3.2 </tspan>
<tspan x="10" y="7418">  │ │ │ └── querystring@0.2.0 </tspan>
<tspan x="10" y="7434">  │ │ ├─┬ util@0.10.3 </tspan>
<tspan x="10" y="7450">  │ │ │ └── inherits@2.0.1 </tspan>
<tspan x="10" y="7466">  │ │ └─┬ vm-browserify@0.0.4 </tspan>
<tspan x="10" y="7482">  │ │   └── indexof@0.0.1 </tspan>
<tspan x="10" y="7498">  │ ├── source-map@0.5.6 </tspan>
<tspan x="10" y="7514">  │ ├─┬ supports-color@3.2.3 </tspan>
<tspan x="10" y="7530">  │ │ └── has-flag@1.0.0 </tspan>
<tspan x="10" y="7546">  │ ├── tapable@0.2.6 </tspan>
<tspan x="10" y="7562">  │ ├─┬ uglify-js@2.6.4 </tspan>
<tspan x="10" y="7578">  │ │ ├── async@0.2.10 </tspan>
<tspan x="10" y="7594">  │ │ ├── uglify-to-browserify@1.0.2 </tspan>
<tspan x="10" y="7610">  │ │ └─┬ yargs@3.10.0 </tspan>
<tspan x="10" y="7626">  │ │   ├── camelcase@1.2.1 </tspan>
<tspan x="10" y="7642">  │ │   ├─┬ cliui@2.1.0 </tspan>
<tspan x="10" y="7658">  │ │   │ ├─┬ center-align@0.1.3 </tspan>
<tspan x="10" y="7674">  │ │   │ │ └─┬ align-text@0.1.4 </tspan>
<tspan x="10" y="7690">  │ │   │ │   ├── longest@1.0.1 </tspan>
<tspan x="10" y="7706">  │ │   │ │   └── repeat-string@1.6.1 </tspan>
<tspan x="10" y="7722">  │ │   │ ├── right-align@0.1.3 </tspan>
<tspan x="10" y="7738">  │ │   │ └── wordwrap@0.0.2 </tspan>
<tspan x="10" y="7754">  │ │   └── window-size@0.1.0 </tspan>
<tspan x="10" y="7770">  │ ├─┬ watchpack@1.3.1 </tspan>
<tspan x="10" y="7786">  │ │ └─┬ chokidar@1.6.1 </tspan>
<tspan x="10" y="7802">  │ │   ├── anymatch@1.3.0 </tspan>
<tspan x="10" y="7818">  │ │   ├── async-each@1.0.1 </tspan>
<tspan x="10" y="7834">  │ │   ├── glob-parent@2.0.0 </tspan>
<tspan x="10" y="7850">  │ │   ├─┬ is-binary-path@1.0.1 </tspan>
<tspan x="10" y="7866">  │ │   │ └── binary-extensions@1.8.0 </tspan>
<tspan x="10" y="7882">  │ │   ├── is-glob@2.0.1 </tspan>
<tspan x="10" y="7898">  │ │   └─┬ readdirp@2.1.0 </tspan>
<tspan x="10" y="7914">  │ │     └── set-immediate-shim@1.0.1 </tspan>
<tspan x="10" y="7930">  │ ├── webpack-sources@0.1.5 </tspan>
<tspan x="10" y="7946">  │ └─┬ yargs@4.8.1 </tspan>
<tspan x="10" y="7962">  │   ├─┬ cliui@3.2.0 </tspan>
<tspan x="10" y="7978">  │   │ └── wrap-ansi@2.1.0 </tspan>
<tspan x="10" y="7994">  │   ├── get-caller-file@1.0.2 </tspan>
<tspan x="10" y="8010">  │   ├─┬ os-locale@1.4.0 </tspan>
<tspan x="10" y="8026">  │   │ └─┬ lcid@1.0.0 </tspan>
<tspan x="10" y="8042">  │   │   └── invert-kv@1.0.0 </tspan>
<tspan x="10" y="8058">  │   ├── require-directory@2.1.1 </tspan>
<tspan x="10" y="8074">  │   ├── require-main-filename@1.0.1 </tspan>
<tspan x="10" y="8090">  │   ├─┬ string-width@1.0.2 </tspan>
<tspan x="10" y="8106">  │   │ ├── code-point-at@1.1.0 </tspan>
<tspan x="10" y="8122">  │   │ └── is-fullwidth-code-point@1.0.0 </tspan>
<tspan x="10" y="8138">  │   ├── which-module@1.0.0 </tspan>
<tspan x="10" y="8154">  │   ├── window-size@0.2.0 </tspan>
<tspan x="10" y="8170">  │   ├── y18n@3.2.1 </tspan>
<tspan x="10" y="8186">  │   └─┬ yargs-parser@2.4.1 </tspan>
<tspan x="10" y="8202">  │     └── camelcase@3.0.0 </tspan>
<tspan x="10" y="8218">  ├─┬ webpack-dev-server@2.1.0-beta.7 </tspan>
<tspan x="10" y="8234">  │ ├─┬ compression@1.6.2 </tspan>
<tspan x="10" y="8250">  │ │ ├─┬ accepts@1.3.3 </tspan>
<tspan x="10" y="8266">  │ │ │ └── negotiator@0.6.1 </tspan>
<tspan x="10" y="8282">  │ │ ├── bytes@2.3.0 </tspan>
<tspan x="10" y="8298">  │ │ ├── compressible@2.0.10 </tspan>
<tspan x="10" y="8314">  │ │ ├─┬ debug@2.2.0 </tspan>
<tspan x="10" y="8330">  │ │ │ └── ms@0.7.1 </tspan>
<tspan x="10" y="8346">  │ │ ├── on-headers@1.0.1 </tspan>
<tspan x="10" y="8362">  │ │ └── vary@1.1.1 </tspan>
<tspan x="10" y="8378">  │ ├── connect-history-api-fallback@1.3.0 </tspan>
<tspan x="10" y="8394">  │ ├─┬ express@4.15.2 </tspan>
<tspan x="10" y="8410">  │ │ ├── array-flatten@1.1.1 </tspan>
<tspan x="10" y="8426">  │ │ ├── content-disposition@0.5.2 </tspan>
<tspan x="10" y="8442">  │ │ ├── content-type@1.0.2 </tspan>
<tspan x="10" y="8458">  │ │ ├── cookie@0.3.1 </tspan>
<tspan x="10" y="8474">  │ │ ├── cookie-signature@1.0.6 </tspan>
<tspan x="10" y="8490">  │ │ ├── debug@2.6.1 </tspan>
<tspan x="10" y="8506">  │ │ ├── depd@1.1.0 </tspan>
<tspan x="10" y="8522">  │ │ ├── encodeurl@1.0.1 </tspan>
<tspan x="10" y="8538">  │ │ ├── escape-html@1.0.3 </tspan>
<tspan x="10" y="8554">  │ │ ├── etag@1.8.0 </tspan>
<tspan x="10" y="8570">  │ │ ├─┬ finalhandler@1.0.1 </tspan>
<tspan x="10" y="8586">  │ │ │ └── unpipe@1.0.0 </tspan>
<tspan x="10" y="8602">  │ │ ├── fresh@0.5.0 </tspan>
<tspan x="10" y="8618">  │ │ ├── merge-descriptors@1.0.1 </tspan>
<tspan x="10" y="8634">  │ │ ├── methods@1.1.2 </tspan>
<tspan x="10" y="8650">  │ │ ├─┬ on-finished@2.3.0 </tspan>
<tspan x="10" y="8666">  │ │ │ └── ee-first@1.1.1 </tspan>
<tspan x="10" y="8682">  │ │ ├── parseurl@1.3.1 </tspan>
<tspan x="10" y="8698">  │ │ ├── path-to-regexp@0.1.7 </tspan>
<tspan x="10" y="8714">  │ │ ├─┬ proxy-addr@1.1.4 </tspan>
<tspan x="10" y="8730">  │ │ │ ├── forwarded@0.1.0 </tspan>
<tspan x="10" y="8746">  │ │ │ └── ipaddr.js@1.3.0 </tspan>
<tspan x="10" y="8762">  │ │ ├── range-parser@1.2.0 </tspan>
<tspan x="10" y="8778">  │ │ ├─┬ send@0.15.1 </tspan>
<tspan x="10" y="8794">  │ │ │ ├── debug@2.6.1 </tspan>
<tspan x="10" y="8810">  │ │ │ ├── destroy@1.0.4 </tspan>
<tspan x="10" y="8826">  │ │ │ └── http-errors@1.6.1 </tspan>
<tspan x="10" y="8842">  │ │ ├── serve-static@1.12.1 </tspan>
<tspan x="10" y="8858">  │ │ ├── setprototypeof@1.0.3 </tspan>
<tspan x="10" y="8874">  │ │ ├── statuses@1.3.1 </tspan>
<tspan x="10" y="8890">  │ │ ├─┬ type-is@1.6.15 </tspan>
<tspan x="10" y="8906">  │ │ │ └── media-typer@0.3.0 </tspan>
<tspan x="10" y="8922">  │ │ └── utils-merge@1.0.0 </tspan>
<tspan x="10" y="8938">  │ ├─┬ http-proxy-middleware@0.17.4 </tspan>
<tspan x="10" y="8954">  │ │ ├─┬ http-proxy@1.16.2 </tspan>
<tspan x="10" y="8970">  │ │ │ ├── eventemitter3@1.2.0 </tspan>
<tspan x="10" y="8986">  │ │ │ └── requires-port@1.0.0 </tspan>
<tspan x="10" y="9002">  │ │ ├─┬ is-glob@3.1.0 </tspan>
<tspan x="10" y="9018">  │ │ │ └── is-extglob@2.1.1 </tspan>
<tspan x="10" y="9034">  │ │ └─┬ micromatch@2.3.11 </tspan>
<tspan x="10" y="9050">  │ │   ├─┬ arr-diff@2.0.0 </tspan>
<tspan x="10" y="9066">  │ │   │ └── arr-flatten@1.0.3 </tspan>
<tspan x="10" y="9082">  │ │   ├── array-unique@0.2.1 </tspan>
<tspan x="10" y="9098">  │ │   ├─┬ braces@1.8.5 </tspan>
<tspan x="10" y="9114">  │ │   │ ├─┬ expand-range@1.8.2 </tspan>
<tspan x="10" y="9130">  │ │   │ │ └─┬ fill-range@2.2.3 </tspan>
<tspan x="10" y="9146">  │ │   │ │   ├── is-number@2.1.0 </tspan>
<tspan x="10" y="9162">  │ │   │ │   └── randomatic@1.1.6 </tspan>
<tspan x="10" y="9178">  │ │   │ ├── preserve@0.2.0 </tspan>
<tspan x="10" y="9194">  │ │   │ └── repeat-element@1.1.2 </tspan>
<tspan x="10" y="9210">  │ │   ├─┬ expand-brackets@0.1.5 </tspan>
<tspan x="10" y="9226">  │ │   │ └── is-posix-bracket@0.1.1 </tspan>
<tspan x="10" y="9242">  │ │   ├── extglob@0.3.2 </tspan>
<tspan x="10" y="9258">  │ │   ├── filename-regex@2.0.0 </tspan>
<tspan x="10" y="9274">  │ │   ├── is-extglob@1.0.0 </tspan>
<tspan x="10" y="9290">  │ │   ├─┬ kind-of@3.1.0 </tspan>
<tspan x="10" y="9306">  │ │   │ └── is-buffer@1.1.5 </tspan>
<tspan x="10" y="9322">  │ │   ├─┬ normalize-path@2.1.1 </tspan>
<tspan x="10" y="9338">  │ │   │ └── remove-trailing-separator@1.0.1 </tspan>
<tspan x="10" y="9354">  │ │   ├─┬ object.omit@2.0.1 </tspan>
<tspan x="10" y="9370">  │ │   │ ├─┬ for-own@0.1.5 </tspan>
<tspan x="10" y="9386">  │ │   │ │ └── for-in@1.0.2 </tspan>
<tspan x="10" y="9402">  │ │   │ └── is-extendable@0.1.1 </tspan>
<tspan x="10" y="9418">  │ │   ├─┬ parse-glob@3.0.4 </tspan>
<tspan x="10" y="9434">  │ │   │ ├── glob-base@0.3.0 </tspan>
<tspan x="10" y="9450">  │ │   │ └── is-dotfile@1.0.2 </tspan>
<tspan x="10" y="9466">  │ │   └─┬ regex-cache@0.4.3 </tspan>
<tspan x="10" y="9482">  │ │     ├── is-equal-shallow@0.1.3 </tspan>
<tspan x="10" y="9498">  │ │     └── is-primitive@2.0.0 </tspan>
<tspan x="10" y="9514">  │ ├─┬ opn@4.0.2 </tspan>
<tspan x="10" y="9530">  │ │ └─┬ pinkie-promise@2.0.1 </tspan>
<tspan x="10" y="9546">  │ │   └── pinkie@2.0.4 </tspan>
<tspan x="10" y="9562">  │ ├─┬ serve-index@1.8.0 </tspan>
<tspan x="10" y="9578">  │ │ ├── batch@0.5.3 </tspan>
<tspan x="10" y="9594">  │ │ ├─┬ debug@2.2.0 </tspan>
<tspan x="10" y="9610">  │ │ │ └── ms@0.7.1 </tspan>
<tspan x="10" y="9626">  │ │ └─┬ http-errors@1.5.1 </tspan>
<tspan x="10" y="9642">  │ │   └── setprototypeof@1.0.2 </tspan>
<tspan x="10" y="9658">  │ ├─┬ sockjs@0.3.18 </tspan>
<tspan x="10" y="9674">  │ │ ├─┬ faye-websocket@0.10.0 </tspan>
<tspan x="10" y="9690">  │ │ │ └─┬ websocket-driver@0.6.5 </tspan>
<tspan x="10" y="9706">  │ │ │   └── websocket-extensions@0.1.1 </tspan>
<tspan x="10" y="9722">  │ │ └── uuid@2.0.3 </tspan>
<tspan x="10" y="9738">  │ ├─┬ sockjs-client@1.1.1 </tspan>
<tspan x="10" y="9754">  │ │ ├─┬ eventsource@0.1.6 </tspan>
<tspan x="10" y="9770">  │ │ │ └─┬ original@1.0.0 </tspan>
<tspan x="10" y="9786">  │ │ │   └── url-parse@1.0.5 </tspan>
<tspan x="10" y="9802">  │ │ ├── faye-websocket@0.11.1 </tspan>
<tspan x="10" y="9818">  │ │ ├── json3@3.3.2 </tspan>
<tspan x="10" y="9834">  │ │ └─┬ url-parse@1.1.8 </tspan>
<tspan x="10" y="9850">  │ │   └── querystringify@0.0.4 </tspan>
<tspan x="10" y="9866">  │ ├─┬ spdy@3.4.4 </tspan>
<tspan x="10" y="9882">  │ │ ├── handle-thing@1.2.5 </tspan>
<tspan x="10" y="9898">  │ │ ├── http-deceiver@1.2.7 </tspan>
<tspan x="10" y="9914">  │ │ ├── select-hose@2.0.0 </tspan>
<tspan x="10" y="9930">  │ │ └─┬ spdy-transport@2.0.18 </tspan>
<tspan x="10" y="9946">  │ │   ├── hpack.js@2.1.6 </tspan>
<tspan x="10" y="9962">  │ │   ├── obuf@1.1.1 </tspan>
<tspan x="10" y="9978">  │ │   └─┬ wbuf@1.7.2 </tspan>
<tspan x="10" y="9994">  │ │     └── minimalistic-assert@1.0.0 </tspan>
<tspan x="10" y="10010">  │ ├─┬ strip-ansi@3.0.1 </tspan>
<tspan x="10" y="10026">  │ │ └── ansi-regex@2.1.1 </tspan>
<tspan x="10" y="10042">  │ ├── supports-color@3.2.3 </tspan>
<tspan x="10" y="10058">  │ └─┬ webpack-dev-middleware@1.10.1 </tspan>
<tspan x="10" y="10074">  │   ├── memory-fs@0.4.1 </tspan>
<tspan x="10" y="10090">  │   └── mime@1.3.4 </tspan>
<tspan x="10" y="10106">  └─┬ webpack-merge@0.14.1 </tspan>
<tspan x="10" y="10122">    ├─┬ lodash.find@3.2.1 </tspan>
<tspan x="10" y="10138">    │ ├─┬ lodash._basecallback@3.3.1 </tspan>
<tspan x="10" y="10154">    │ │ ├── lodash._baseisequal@3.0.7 </tspan>
<tspan x="10" y="10170">    │ │ ├── lodash._bindcallback@3.0.1 </tspan>
<tspan x="10" y="10186">    │ │ └── lodash.pairs@3.0.1 </tspan>
<tspan x="10" y="10202">    │ ├── lodash._baseeach@3.0.4 </tspan>
<tspan x="10" y="10218">    │ ├── lodash._basefind@3.0.0 </tspan>
<tspan x="10" y="10234">    │ ├── lodash._basefindindex@3.6.0 </tspan>
<tspan x="10" y="10250">    │ ├── lodash.isarray@3.0.4 </tspan>
<tspan x="10" y="10266">    │ └── lodash.keys@3.1.2 </tspan>
<tspan x="10" y="10282">    ├── lodash.isequal@4.5.0 </tspan>
<tspan x="10" y="10298">    ├─┬ lodash.isplainobject@3.2.0 </tspan>
<tspan x="10" y="10314">    │ ├── lodash._basefor@3.0.3 </tspan>
<tspan x="10" y="10330">    │ ├── lodash.isarguments@3.1.0 </tspan>
<tspan x="10" y="10346">    │ └── lodash.keysin@3.0.8 </tspan>
<tspan x="10" y="10362">    └─┬ lodash.merge@3.3.2 </tspan>
<tspan x="10" y="10378">      ├── lodash._arraycopy@3.0.0 </tspan>
<tspan x="10" y="10394">      ├── lodash._arrayeach@3.0.0 </tspan>
<tspan x="10" y="10410">      ├─┬ lodash._createassigner@3.1.1 </tspan>
<tspan x="10" y="10426">      │ ├── lodash._isiterateecall@3.0.9 </tspan>
<tspan x="10" y="10442">      │ └── lodash.restparam@3.6.1 </tspan>
<tspan x="10" y="10458">      ├── lodash._getnative@3.9.1 </tspan>
<tspan x="10" y="10474">      ├── lodash.istypedarray@3.0.6 </tspan>
<tspan x="10" y="10490">      └─┬ lodash.toplainobject@3.0.0 </tspan>
<tspan x="10" y="10506">        └── lodash._basecopy@3.0.1</tspan>
</text>
</svg>
